<?xml version="1.0" encoding="utf-8"?>
<!-- Generator: Adobe Illustrator 27.5.0, SVG Export Plug-In . SVG Version: 6.00 Build 0)  -->
<svg version="1.1" xmlns="http://www.w3.org/2000/svg" xmlns:xlink="http://www.w3.org/1999/xlink" x="0px" y="0px"
	 viewBox="0 0 1040 500" style="enable-background:new 0 0 1040 500;" xml:space="preserve">
<g id="BACKGROUND">
	<rect style="fill:#FFFFFF;" width="1040" height="500"/>
</g>
<g id="PHOTOS">
	<g>
		<defs>
			<rect id="SVGID_1_" y="54.055" width="416.305" height="445.945"/>
		</defs>
		<clipPath id="SVGID_00000065043026112757140330000013524273703241861290_">
			<use xlink:href="#SVGID_1_"  style="overflow:visible;"/>
		</clipPath>
		<g style="clip-path:url(#SVGID_00000065043026112757140330000013524273703241861290_);">
			<defs>
				
					<ellipse id="SVGID_00000075881820531306308030000018066771742491788677_" transform="matrix(0.7071 -0.7071 0.7071 0.7071 -212.5642 185.1615)" cx="117.228" cy="349.168" rx="278.232" ry="278.232"/>
			</defs>
			<use xlink:href="#SVGID_00000075881820531306308030000018066771742491788677_"  style="overflow:visible;fill:#2B2B2B;"/>
			<clipPath id="SVGID_00000016034153413108613580000007999002443206331027_">
				<use xlink:href="#SVGID_00000075881820531306308030000018066771742491788677_"  style="overflow:visible;"/>
			</clipPath>
			
				<use xlink:href="#SVGID_00000075881820531306308030000018066771742491788677_"  style="overflow:visible;fill:none;stroke:#FF9D00;stroke-width:8.1189;stroke-miterlimit:10;"/>
		</g>
	</g>
</g>
<g id="OBJECTS">
	<g>
		<defs>
			<rect id="SVGID_00000126312819034180885240000013312103655013314477_" width="1040" height="500"/>
		</defs>
		<clipPath id="SVGID_00000078746431555559102020000017364735844919005861_">
			<use xlink:href="#SVGID_00000126312819034180885240000013312103655013314477_"  style="overflow:visible;"/>
		</clipPath>
		<g style="clip-path:url(#SVGID_00000078746431555559102020000017364735844919005861_);">
			<path style="fill:#FF9D00;" d="M949.348,435.092c-3.41,0.33-4.676,5.172-4.238,6.265c0.566,1.416,2.223,2.018,3.639,1.648
				C952.238,442.094,954.168,434.625,949.348,435.092z"/>
			<path style="fill:#FF9D00;" d="M912.144,444.99c-3.41,0.33-4.677,5.171-4.238,6.265c0.566,1.416,2.222,2.018,3.638,1.648
				C915.033,451.993,916.965,444.523,912.144,444.99z"/>
			<path style="fill:#FF9D00;" d="M904.03,431.073c-3.409,0.33-4.676,5.171-4.238,6.264c0.568,1.416,2.223,2.019,3.639,1.648
				C906.921,438.075,908.852,430.606,904.03,431.073z"/>
			<path style="fill:#FF9D00;" d="M951.949,395.835c-3.41,0.33-4.678,5.171-4.238,6.264c0.566,1.416,2.223,2.018,3.637,1.648
				C954.838,402.836,956.769,395.368,951.949,395.835z"/>
			<path style="fill:#FF9D00;" d="M935.169,427.577c-3.409,0.33-4.677,5.171-4.238,6.264c0.567,1.416,2.223,2.018,3.638,1.649
				C938.059,434.579,939.99,427.11,935.169,427.577z"/>
			<path style="fill:#FF9D00;" d="M904.03,475.161c-3.408,0.33-4.676,5.17-4.238,6.264c0.568,1.416,2.223,2.02,3.639,1.649
				C906.921,482.163,908.852,474.694,904.03,475.161z"/>
			<path style="fill:#FF9D00;" d="M908.539,459.192c-3.409,0.33-4.677,5.172-4.238,6.264c0.567,1.416,2.222,2.02,3.638,1.65
				C911.429,466.194,913.359,458.725,908.539,459.192z"/>
			<path style="fill:#FF9D00;" d="M919.068,427.577c-3.41,0.33-4.677,5.171-4.238,6.264c0.567,1.416,2.223,2.018,3.638,1.649
				C921.958,434.579,923.889,427.11,919.068,427.577z"/>
			<path style="fill:#FF9D00;" d="M933.339,401.889c-3.409,0.33-4.677,5.171-4.238,6.264c0.567,1.416,2.222,2.018,3.638,1.648
				C936.228,408.891,938.16,401.422,933.339,401.889z"/>
			<path style="fill:#FF9D00;" d="M926.277,449.01c-3.41,0.33-4.678,5.172-4.239,6.264c0.567,1.416,2.223,2.02,3.638,1.65
				C929.166,456.012,931.098,448.543,926.277,449.01z"/>
			<path style="fill:#FF9D00;" d="M955.553,416.16c-3.408,0.331-4.676,5.171-4.238,6.265c0.568,1.416,2.223,2.018,3.639,1.649
				C958.443,423.162,960.374,415.693,955.553,416.16z"/>
			<path style="fill:#FF9D00;" d="M859.589,502.196c-3.41,0.33-4.678,5.17-4.238,6.264c0.566,1.416,2.222,2.018,3.637,1.648
				C862.477,509.198,864.409,501.729,859.589,502.196z"/>
			<path style="fill:#FF9D00;" d="M887.901,483.768c-3.408,0.33-4.676,5.172-4.238,6.264c0.567,1.416,2.223,2.02,3.639,1.648
				C890.792,490.77,892.723,483.301,887.901,483.768z"/>
			<path style="fill:#FF9D00;" d="M895.11,449.01c-3.41,0.33-4.677,5.172-4.238,6.266c0.567,1.414,2.223,2.018,3.638,1.648
				C898,456.012,899.931,448.543,895.11,449.01z"/>
			<path style="fill:#FF9D00;" d="M887.901,468.694c-3.408,0.33-4.676,5.17-4.238,6.264c0.567,1.416,2.223,2.018,3.639,1.648
				C890.792,475.696,892.723,468.227,887.901,468.694z"/>
			<path style="fill:#FF9D00;" d="M873,487.788c-3.409,0.33-4.677,5.172-4.238,6.266c0.567,1.414,2.223,2.018,3.638,1.648
				C875.89,494.79,877.821,487.321,873,487.788z"/>
			<path style="fill:#FF9D00;" d="M968.366,403.875c-3.41,0.331-4.678,5.171-4.238,6.265c0.566,1.415,2.223,2.018,3.637,1.648
				C971.255,410.876,973.186,403.408,968.366,403.875z"/>
			<path style="fill:#FF9D00;" d="M908.539,399.854c-3.409,0.331-4.677,5.172-4.238,6.265c0.567,1.415,2.222,2.018,3.638,1.649
				C911.429,406.856,913.359,399.387,908.539,399.854z"/>
		</g>
		<g style="clip-path:url(#SVGID_00000078746431555559102020000017364735844919005861_);">
			<path style="fill:#2D4C6B;" d="M1040,0v127.121l0,0c-70.192,0-127.095-56.903-127.095-127.096V0H1040z"/>
			<path style="fill:#F4F4F4;" d="M1040,60.884v0.012h-60.884V0l0,0C1012.743,0,1040,27.259,1040,60.884z"/>
			<polygon style="fill:#FF9D00;" points="912.905,0 979.116,60.896 979.116,0 			"/>
			<path style="fill:#F4F4F4;" d="M1008.661,97.002c2.665,0,4.827-2.162,4.827-4.826c0-2.666-2.162-4.828-4.827-4.828
				c-2.664,0-4.826,2.162-4.826,4.828C1003.835,94.84,1005.997,97.002,1008.661,97.002z"/>
		</g>
		<path style="clip-path:url(#SVGID_00000078746431555559102020000017364735844919005861_);fill:#FF9D00;" d="M497.204,500
			c0-29.033,23.543-52.574,52.586-52.574c29.049,0,52.59,23.541,52.59,52.574H497.204z"/>
		<g style="clip-path:url(#SVGID_00000078746431555559102020000017364735844919005861_);">
			<g>
				<path style="fill:#FF9D00;" d="M30.206,56.248h-0.002c-5.471,0-9.904-4.434-9.904-9.904v-9.902H40.11v9.902
					C40.11,51.814,35.676,56.248,30.206,56.248z"/>
				<path style="fill:#FF9D00;" d="M50.014,16.711h0.002c5.471,0,9.905,4.435,9.905,9.906v9.902H40.11v-9.902
					C40.11,21.146,44.544,16.711,50.014,16.711z"/>
				<path style="fill:#2D4C6B;" d="M69.789,56.248h-0.002c-5.47,0-9.905-4.434-9.905-9.904v-9.902h19.813v9.902
					C79.694,51.814,75.258,56.248,69.789,56.248z"/>
				<path style="fill:#2D4C6B;" d="M89.598,16.711H89.6c5.47,0,9.904,4.435,9.904,9.906v9.902H79.694v-9.902
					C79.694,21.146,84.127,16.711,89.598,16.711z"/>
			</g>
			<g>
				<path style="fill:#2D4C6B;" d="M109.39,56.248h-0.002c-5.47,0-9.904-4.434-9.904-9.904v-9.902h19.812v9.902
					C119.295,51.814,114.86,56.248,109.39,56.248z"/>
				<path style="fill:#3FBAA8;" d="M129.2,16.711h0.002c5.471,0,9.904,4.435,9.904,9.906v9.902h-19.811v-9.902
					C119.295,21.146,123.729,16.711,129.2,16.711z"/>
				<path style="fill:#3FBAA8;" d="M148.973,56.248h-0.002c-5.47,0-9.904-4.434-9.904-9.904v-9.902h19.812v9.902
					C158.878,51.814,154.444,56.248,148.973,56.248z"/>
				<path style="fill:#3FBAA8;" d="M168.783,16.711h0.002c5.47,0,9.905,4.435,9.905,9.906v9.902h-19.811v-9.902
					C158.878,21.146,163.313,16.711,168.783,16.711z"/>
			</g>
		</g>
		<g style="clip-path:url(#SVGID_00000078746431555559102020000017364735844919005861_);">
			<g>
				<path style="fill:#FF9D00;" d="M416.304,72.957c-40.229,0-72.956-32.728-72.956-72.957h0.658
					c0,39.865,32.434,72.297,72.298,72.297s72.298-32.432,72.298-72.297h0.658C489.26,40.229,456.533,72.957,416.304,72.957z"/>
			</g>
			<g>
				<path style="fill:#FF9D00;" d="M416.304,79.682c-43.936,0-79.682-35.744-79.682-79.682h0.658
					c0,43.574,35.45,79.023,79.023,79.023s79.023-35.449,79.023-79.023h0.658C495.986,43.938,460.241,79.682,416.304,79.682z"/>
			</g>
			<g>
				<path style="fill:#FF9D00;" d="M416.304,86.409c-47.646,0-86.407-38.762-86.407-86.408h0.658
					c0,47.281,38.467,85.748,85.749,85.748s85.749-38.467,85.749-85.748h0.658C502.711,47.647,463.95,86.409,416.304,86.409z"/>
			</g>
			<g>
				<path style="fill:#FF9D00;" d="M416.304,93.133c-51.354,0-93.133-41.779-93.133-93.133h0.659
					c0,50.99,41.482,92.475,92.474,92.475s92.475-41.484,92.475-92.475h0.659C509.438,51.354,467.659,93.133,416.304,93.133z"/>
			</g>
			<g>
				<path style="fill:#FF9D00;" d="M416.304,99.86c-55.063,0-99.859-44.797-99.859-99.859h0.658
					c0,54.699,44.502,99.201,99.201,99.201S515.505,54.7,515.505,0.001h0.658C516.164,55.063,471.368,99.86,416.304,99.86z"/>
			</g>
			<g>
				<path style="fill:#FF9D00;" d="M416.304,106.587c-58.771,0-106.585-47.815-106.585-106.586h0.658
					c0,58.408,47.519,105.926,105.927,105.926S522.231,58.409,522.231,0.001h0.658C522.89,58.772,475.076,106.587,416.304,106.587z"
					/>
			</g>
			<g>
				<path style="fill:#FF9D00;" d="M416.304,113.311c-62.479,0-113.311-50.83-113.311-113.311h0.658
					c0,62.117,50.536,112.652,112.652,112.652S528.956,62.118,528.956,0.001h0.658C529.614,62.481,478.784,113.311,416.304,113.311z
					"/>
			</g>
			<g>
				<path style="fill:#FF9D00;" d="M416.304,120.038c-66.189,0-120.036-53.848-120.036-120.037h0.658
					c0,65.826,53.553,119.377,119.378,119.377S535.683,65.827,535.683,0.001h0.658C536.341,66.19,482.493,120.038,416.304,120.038z"
					/>
			</g>
			<g>
				<path style="fill:#FF9D00;" d="M416.304,126.762c-69.897,0-126.762-56.865-126.762-126.762h0.659
					c0,69.533,56.568,126.103,126.103,126.103S542.407,69.534,542.407,0.001h0.66C543.067,69.897,486.202,126.762,416.304,126.762z"
					/>
			</g>
			<g>
				<path style="fill:#FF9D00;" d="M416.304,133.489c-73.604,0-133.487-59.883-133.487-133.488h0.659
					c0,73.242,59.586,132.828,132.828,132.828s132.83-59.586,132.83-132.828h0.658C549.792,73.606,489.91,133.489,416.304,133.489z"
					/>
			</g>
			<g>
				<path style="fill:#FF9D00;" d="M416.304,140.379c-77.405,0-140.379-62.973-140.379-140.379h0.659
					c0,77.041,62.678,139.721,139.72,139.721s139.72-62.68,139.72-139.721h0.66C556.685,77.407,493.71,140.379,416.304,140.379z"/>
			</g>
			<g>
				<path style="fill:#FF9D00;" d="M416.304,146.94c-39.249,0-76.148-15.285-103.901-43.037
					C284.649,76.149,269.365,39.25,269.365,0.001h0.659c0,80.66,65.62,146.281,146.28,146.281S562.585,80.661,562.585,0.001h0.658
					c0,39.25-15.283,76.148-43.038,103.902C492.453,131.655,455.553,146.94,416.304,146.94z"/>
			</g>
			<g>
				<path style="fill:#FF9D00;" d="M416.304,153.667c-41.045,0-79.634-15.984-108.657-45.008
					c-29.023-29.023-45.008-67.613-45.008-108.658h0.659c0,84.369,68.638,153.006,153.006,153.006S569.31,84.37,569.31,0.001h0.66
					c0,41.045-15.984,79.635-45.008,108.658C495.938,137.682,457.349,153.667,416.304,153.667z"/>
			</g>
		</g>
		<g style="clip-path:url(#SVGID_00000078746431555559102020000017364735844919005861_);">
			<g>
				<path style="fill:#FF9D00;" d="M967.042,537.212c0.001-40.229,32.729-72.956,72.958-72.956v0.658
					c-39.865,0-72.297,32.434-72.298,72.298c0,39.864,32.432,72.298,72.297,72.298v0.658
					C999.771,610.169,967.042,577.441,967.042,537.212z"/>
			</g>
			<g>
				<path style="fill:#FF9D00;" d="M960.317,537.212c0.001-43.936,35.745-79.682,79.683-79.682v0.658
					c-43.574,0-79.023,35.45-79.024,79.023c0,43.573,35.449,79.023,79.023,79.023v0.658
					C996.061,616.894,960.317,581.149,960.317,537.212z"/>
			</g>
			<g>
				<path style="fill:#FF9D00;" d="M953.591,537.212c0.001-47.646,38.763-86.407,86.409-86.407v0.658
					c-47.281,0-85.748,38.467-85.749,85.749c0,47.282,38.467,85.749,85.748,85.749v0.658
					C992.352,623.62,953.591,584.858,953.591,537.212z"/>
			</g>
			<g>
				<path style="fill:#FF9D00;" d="M946.866,537.212c0.001-51.354,41.78-93.133,93.134-93.133v0.659
					c-50.99,0-92.475,41.482-92.476,92.474c0,50.991,41.484,92.475,92.475,92.475v0.659
					C988.646,630.346,946.866,588.567,946.866,537.212z"/>
			</g>
			<g>
				<path style="fill:#FF9D00;" d="M940.14,537.212c0.001-55.063,44.798-99.859,99.86-99.859v0.658
					c-54.699,0-99.201,44.502-99.202,99.201c0,54.699,44.502,99.201,99.201,99.201v0.658
					C984.936,637.072,940.14,592.276,940.14,537.212z"/>
			</g>
			<g>
				<path style="fill:#FF9D00;" d="M933.413,537.212c0.001-58.771,47.815-106.585,106.587-106.585v0.658
					c-58.408,0-105.926,47.518-105.927,105.927c0,58.408,47.518,105.928,105.926,105.928v0.658
					C981.227,643.798,933.413,595.984,933.413,537.212z"/>
			</g>
			<g>
				<path style="fill:#FF9D00;" d="M926.688,537.212c0.001-62.479,50.831-113.311,113.312-113.311v0.658
					c-62.117,0-112.652,50.536-112.653,112.652c0,62.116,50.535,112.652,112.652,112.652v0.658
					C977.519,650.523,926.688,599.692,926.688,537.212z"/>
			</g>
			<g>
				<path style="fill:#FF9D00;" d="M919.962,537.212c0.001-66.188,53.849-120.036,120.038-120.036v0.658
					c-65.826,0-119.377,53.553-119.378,119.378c0,65.825,53.551,119.379,119.377,119.379v0.658
					C973.81,657.25,919.962,603.401,919.962,537.212z"/>
			</g>
			<g>
				<path style="fill:#FF9D00;" d="M913.237,537.212c0.001-69.897,56.866-126.762,126.763-126.762v0.659
					c-69.533,0-126.104,56.568-126.104,126.103c0,69.534,56.57,126.104,126.104,126.104v0.66
					C970.102,663.976,913.237,607.11,913.237,537.212z"/>
			</g>
			<g>
				<path style="fill:#FF9D00;" d="M906.511,537.212c0.001-73.604,59.884-133.487,133.489-133.487v0.659
					c-73.242,0-132.828,59.586-132.829,132.828c0,73.242,59.586,132.83,132.828,132.83v0.658
					C966.394,670.701,906.511,610.818,906.511,537.212z"/>
			</g>
			<g>
				<path style="fill:#FF9D00;" d="M899.62,537.212c0.001-77.405,62.974-140.379,140.38-140.379v0.659
					c-77.041,0-139.721,62.678-139.722,139.72c0,77.042,62.68,139.721,139.721,139.721v0.66
					C962.593,677.593,899.62,614.618,899.62,537.212z"/>
			</g>
			<g>
				<path style="fill:#FF9D00;" d="M893.06,537.212c0.001-39.249,15.286-76.148,43.038-103.901
					c27.754-27.754,64.652-43.038,103.902-43.038v0.659c-80.66,0-146.281,65.62-146.282,146.28
					c0,80.66,65.621,146.281,146.281,146.281v0.658c-39.25,0-76.148-15.283-103.902-43.038
					C908.345,613.361,893.06,576.461,893.06,537.212z"/>
			</g>
			<g>
				<path style="fill:#FF9D00;" d="M886.333,537.212c0.001-41.045,15.985-79.634,45.009-108.657
					c29.023-29.023,67.613-45.008,108.658-45.008v0.659c-84.369,0-153.006,68.638-153.007,153.006
					c0,84.368,68.637,153.006,153.006,153.006v0.66c-41.045,0-79.635-15.984-108.658-45.008
					C902.317,616.846,886.333,578.257,886.333,537.212z"/>
			</g>
		</g>
		<g style="clip-path:url(#SVGID_00000078746431555559102020000017364735844919005861_);">
			<path style="fill:#3FBAA8;" d="M895.668,500c0-39.848,32.31-72.148,72.166-72.148c39.857,0,72.166,32.301,72.166,72.148H895.668z
				"/>
			<path style="fill:#2D4C6B;" d="M927.801,500c0-22.105,17.924-40.025,40.033-40.025c22.111,0,40.035,17.92,40.035,40.025H927.801z
				"/>
			<path style="fill:#FF9D00;" d="M956.334,500c0-6.35,5.148-11.496,11.5-11.496c6.352,0,11.5,5.147,11.5,11.496H956.334z"/>
		</g>
		<g style="clip-path:url(#SVGID_00000078746431555559102020000017364735844919005861_);">
			<circle style="fill:#FF9D00;" cx="416.305" cy="383.547" r="87.742"/>
			<circle style="fill:#FFFFFF;" cx="416.304" cy="383.547" r="69.742"/>
		</g>
		<path style="clip-path:url(#SVGID_00000078746431555559102020000017364735844919005861_);fill:#FF9D00;" d="M582.247,418.353
			l1.651,3.431c1.515,3.143,4.05,5.678,7.194,7.191l3.43,1.652l-3.43,1.651c-3.145,1.514-5.68,4.05-7.194,7.192l-1.651,3.43
			l-1.652-3.43c-1.514-3.143-4.051-5.679-7.193-7.192l-3.432-1.651l3.432-1.652c3.143-1.514,5.68-4.049,7.193-7.191L582.247,418.353
			z"/>
		<path style="clip-path:url(#SVGID_00000078746431555559102020000017364735844919005861_);fill:#FF9D00;" d="M806.15,24.167
			l1.651,3.43c1.515,3.143,4.05,5.678,7.194,7.191l3.43,1.652l-3.43,1.652c-3.145,1.514-5.68,4.049-7.194,7.191l-1.651,3.43
			l-1.652-3.43c-1.514-3.143-4.051-5.678-7.193-7.191l-3.432-1.652l3.432-1.652c3.143-1.514,5.68-4.049,7.193-7.191L806.15,24.167z"
			/>
		<g style="clip-path:url(#SVGID_00000078746431555559102020000017364735844919005861_);">
			<g>
				<g>
					<path style="fill:#2D4C6B;" d="M976.31,277.028c1.641,0,2.972,1.33,2.972,2.971c0,1.642-1.331,2.972-2.972,2.972
						c-1.642,0-2.972-1.33-2.972-2.972C973.338,278.358,974.668,277.028,976.31,277.028z"/>
					<path style="fill:#2D4C6B;" d="M976.31,294.91c1.641,0,2.972,1.33,2.972,2.971c0,1.642-1.331,2.972-2.972,2.972
						c-1.642,0-2.972-1.33-2.972-2.972C973.338,296.24,974.668,294.91,976.31,294.91z"/>
					<path style="fill:#2D4C6B;" d="M976.31,312.792c1.641,0,2.972,1.33,2.972,2.971c0,1.641-1.331,2.971-2.972,2.971
						c-1.642,0-2.972-1.33-2.972-2.971C973.338,314.122,974.668,312.792,976.31,312.792z"/>
					<path style="fill:#FF9D00;" d="M976.31,330.672c1.641,0,2.972,1.33,2.972,2.971c0,1.642-1.331,2.972-2.972,2.972
						c-1.642,0-2.972-1.33-2.972-2.972C973.338,332.003,974.668,330.672,976.31,330.672z"/>
					<path style="fill:#FF9D00;" d="M976.31,348.553c1.641,0,2.972,1.331,2.972,2.972c0,1.642-1.331,2.972-2.972,2.972
						c-1.642,0-2.972-1.33-2.972-2.972C973.338,349.884,974.668,348.553,976.31,348.553z"/>
					<path style="fill:#FF9D00;" d="M976.31,366.436c1.641,0,2.972,1.33,2.972,2.971c0,1.641-1.331,2.971-2.972,2.971
						c-1.642,0-2.972-1.33-2.972-2.971C973.338,367.766,974.668,366.436,976.31,366.436z"/>
				</g>
				<g>
					<path style="fill:#2D4C6B;" d="M992.488,277.028c1.642,0,2.972,1.33,2.972,2.971c0,1.642-1.33,2.972-2.972,2.972
						s-2.972-1.33-2.972-2.972C989.517,278.358,990.847,277.028,992.488,277.028z"/>
					<path style="fill:#2D4C6B;" d="M992.488,294.91c1.642,0,2.972,1.33,2.972,2.971c0,1.642-1.33,2.972-2.972,2.972
						s-2.972-1.33-2.972-2.972C989.517,296.24,990.847,294.91,992.488,294.91z"/>
					
						<ellipse transform="matrix(1 -0.0049 0.0049 1 -1.5387 4.8778)" style="fill:#2D4C6B;" cx="992.488" cy="315.762" rx="2.972" ry="2.971"/>
					<path style="fill:#FF9D00;" d="M992.488,330.672c1.642,0,2.972,1.33,2.972,2.971c0,1.642-1.33,2.972-2.972,2.972
						s-2.972-1.33-2.972-2.972C989.517,332.003,990.847,330.672,992.488,330.672z"/>
					
						<ellipse transform="matrix(0.3809 -0.9246 0.9246 0.3809 289.4185 1135.295)" style="fill:#FF9D00;" cx="992.488" cy="351.525" rx="2.972" ry="2.972"/>
					
						<ellipse transform="matrix(1 -0.0049 0.0049 1 -1.8022 4.8785)" style="fill:#FF9D00;" cx="992.488" cy="369.407" rx="2.972" ry="2.971"/>
				</g>
			</g>
			<g>
				<g>
					<path style="fill:#2D4C6B;" d="M1007.83,277.028c1.641,0,2.972,1.33,2.972,2.971c0,1.642-1.331,2.972-2.972,2.972
						c-1.642,0-2.972-1.33-2.972-2.972C1004.858,278.358,1006.188,277.028,1007.83,277.028z"/>
					<path style="fill:#2D4C6B;" d="M1007.83,294.91c1.641,0,2.972,1.33,2.972,2.971c0,1.642-1.331,2.972-2.972,2.972
						c-1.642,0-2.972-1.33-2.972-2.972C1004.858,296.24,1006.188,294.91,1007.83,294.91z"/>
					<circle style="fill:#2D4C6B;" cx="1007.83" cy="315.762" r="2.971"/>
					<path style="fill:#FF9D00;" d="M1007.83,330.672c1.641,0,2.972,1.33,2.972,2.971c0,1.642-1.331,2.972-2.972,2.972
						c-1.642,0-2.972-1.33-2.972-2.972C1004.858,332.003,1006.188,330.672,1007.83,330.672z"/>
					<circle style="fill:#FF9D00;" cx="1007.83" cy="351.525" r="2.972"/>
					<circle style="fill:#FF9D00;" cx="1007.83" cy="369.407" r="2.971"/>
				</g>
				<g>
					<path style="fill:#2D4C6B;" d="M1024.009,277.028c1.642,0,2.972,1.33,2.972,2.971c0,1.642-1.33,2.972-2.972,2.972
						c-1.641,0-2.972-1.33-2.972-2.972C1021.037,278.358,1022.368,277.028,1024.009,277.028z"/>
					<path style="fill:#2D4C6B;" d="M1024.009,294.91c1.642,0,2.972,1.33,2.972,2.971c0,1.642-1.33,2.972-2.972,2.972
						c-1.641,0-2.972-1.33-2.972-2.972C1021.037,296.24,1022.368,294.91,1024.009,294.91z"/>
					<circle style="fill:#2D4C6B;" cx="1024.009" cy="315.762" r="2.971"/>
					<path style="fill:#FF9D00;" d="M1024.009,330.672c1.642,0,2.972,1.33,2.972,2.971c0,1.642-1.33,2.972-2.972,2.972
						c-1.641,0-2.972-1.33-2.972-2.972C1021.037,332.003,1022.368,330.672,1024.009,330.672z"/>
					<circle style="fill:#FF9D00;" cx="1024.009" cy="351.525" r="2.972"/>
					<circle style="fill:#FF9D00;" cx="1024.009" cy="369.407" r="2.971"/>
				</g>
			</g>
		</g>
		<path style="clip-path:url(#SVGID_00000078746431555559102020000017364735844919005861_);fill:#FF9D00;" d="M456.323,0.002
			c0,22.098-17.918,40.01-40.02,40.01c-22.102,0-40.018-17.912-40.018-40.01c0-22.096,17.916-40.012,40.018-40.012
			C438.405-40.01,456.323-22.094,456.323,0.002z"/>
		
			<path style="clip-path:url(#SVGID_00000078746431555559102020000017364735844919005861_);fill:none;stroke:#FF9D00;stroke-width:8.5039;stroke-miterlimit:10;" d="
			M1057.884,194.31c0,15.938-12.922,28.855-28.861,28.855c-15.941,0-28.863-12.918-28.863-28.855s12.922-28.857,28.863-28.857
			C1044.962,165.452,1057.884,178.372,1057.884,194.31z"/>
		<polygon style="clip-path:url(#SVGID_00000078746431555559102020000017364735844919005861_);fill:#3FBAA8;" points="
			946.667,0.648 899.62,47.685 852.573,0.648 		"/>
		<polygon style="clip-path:url(#SVGID_00000078746431555559102020000017364735844919005861_);fill:#FF9D00;" points="
			234.967,30.506 231.7,27.24 227.888,31.051 224.076,27.24 220.81,30.506 224.621,34.318 220.81,38.13 224.076,41.397 
			227.888,37.585 231.7,41.397 234.967,38.13 231.155,34.318 		"/>
		
			<rect x="684.715" y="20.209" transform="matrix(0.1711 -0.9853 0.9853 0.1711 546.3259 706.5702)" style="clip-path:url(#SVGID_00000078746431555559102020000017364735844919005861_);fill:#FF9D00;" width="16.761" height="16.762"/>
		
			<rect x="636.963" y="-3.049" transform="matrix(0.5388 -0.8424 0.8424 0.5388 290.138 556.3555)" style="clip-path:url(#SVGID_00000078746431555559102020000017364735844919005861_);fill:#FF9D00;" width="32.475" height="32.474"/>
		<g style="clip-path:url(#SVGID_00000078746431555559102020000017364735844919005861_);">
			<path style="fill:#FF9D00;" d="M510.385,200.936c-3.41,0.33-4.676,5.171-4.238,6.264c0.566,1.416,2.223,2.019,3.639,1.648
				C513.276,207.937,515.206,200.468,510.385,200.936z"/>
			<path style="fill:#FF9D00;" d="M473.181,210.833c-3.41,0.33-4.677,5.171-4.239,6.264c0.567,1.416,2.222,2.018,3.638,1.648
				C476.071,217.835,478.002,210.366,473.181,210.833z"/>
			<path style="fill:#FF9D00;" d="M465.068,196.916c-3.41,0.33-4.677,5.171-4.239,6.264c0.568,1.415,2.223,2.018,3.638,1.648
				C467.958,203.917,469.889,196.448,465.068,196.916z"/>
			<path style="fill:#FF9D00;" d="M512.987,161.677c-3.41,0.33-4.678,5.171-4.238,6.264c0.566,1.416,2.223,2.018,3.637,1.648
				C515.875,168.679,517.807,161.21,512.987,161.677z"/>
			<path style="fill:#FF9D00;" d="M496.206,193.419c-3.409,0.33-4.677,5.171-4.238,6.264c0.567,1.416,2.223,2.018,3.638,1.649
				C499.096,200.421,501.028,192.952,496.206,193.419z"/>
			<path style="fill:#FF9D00;" d="M465.068,241.003c-3.409,0.33-4.677,5.17-4.238,6.264c0.567,1.416,2.222,2.02,3.638,1.648
				C467.958,248.005,469.889,240.537,465.068,241.003z"/>
			<path style="fill:#FF9D00;" d="M469.577,225.035c-3.409,0.33-4.677,5.172-4.238,6.264c0.567,1.416,2.222,2.02,3.638,1.65
				C472.466,232.037,474.397,224.568,469.577,225.035z"/>
			<path style="fill:#FF9D00;" d="M480.106,193.419c-3.41,0.331-4.677,5.171-4.238,6.264c0.567,1.416,2.223,2.018,3.638,1.649
				C482.996,200.421,484.926,192.952,480.106,193.419z"/>
			<path style="fill:#FF9D00;" d="M494.376,167.732c-3.409,0.331-4.677,5.171-4.238,6.264c0.567,1.416,2.222,2.018,3.638,1.649
				C497.266,174.733,499.198,167.265,494.376,167.732z"/>
			<path style="fill:#FF9D00;" d="M487.315,214.853c-3.41,0.33-4.678,5.172-4.239,6.264c0.567,1.416,2.223,2.02,3.638,1.65
				C490.204,221.855,492.135,214.385,487.315,214.853z"/>
			<path style="fill:#FF9D00;" d="M516.59,182.003c-3.408,0.33-4.676,5.171-4.238,6.265c0.568,1.415,2.223,2.018,3.639,1.648
				C519.481,189.004,521.411,181.536,516.59,182.003z"/>
			<path style="fill:#FF9D00;" d="M420.626,268.039c-3.41,0.33-4.677,5.17-4.238,6.264c0.567,1.416,2.222,2.017,3.638,1.648
				C423.516,275.041,425.447,267.572,420.626,268.039z"/>
			<path style="fill:#FF9D00;" d="M448.939,249.611c-3.409,0.33-4.677,5.172-4.239,6.264c0.567,1.416,2.223,2.02,3.638,1.649
				C451.829,256.613,453.76,249.144,448.939,249.611z"/>
			<path style="fill:#FF9D00;" d="M456.148,214.853c-3.41,0.33-4.677,5.172-4.239,6.266c0.568,1.414,2.223,2.018,3.638,1.648
				C459.038,221.855,460.969,214.385,456.148,214.853z"/>
			<path style="fill:#FF9D00;" d="M448.939,234.537c-3.409,0.33-4.677,5.17-4.239,6.264c0.567,1.416,2.223,2.018,3.638,1.649
				C451.829,241.539,453.76,234.07,448.939,234.537z"/>
			<path style="fill:#FF9D00;" d="M434.038,253.63c-3.409,0.33-4.676,5.172-4.238,6.266c0.567,1.414,2.223,2.018,3.638,1.648
				C436.927,260.632,438.859,253.164,434.038,253.63z"/>
			<path style="fill:#FF9D00;" d="M529.403,169.717c-3.41,0.331-4.678,5.171-4.238,6.265c0.566,1.415,2.223,2.018,3.637,1.648
				C532.292,176.719,534.224,169.251,529.403,169.717z"/>
			<path style="fill:#FF9D00;" d="M469.577,165.697c-3.409,0.331-4.677,5.171-4.238,6.264c0.567,1.415,2.222,2.018,3.638,1.649
				C472.466,172.699,474.397,165.23,469.577,165.697z"/>
		</g>
	</g>
</g>
<g id="TEXTS">
	<g>
		<g>
			<path style="fill:#2D4C6B;" d="M757.183,461.157H743.06c-1.297,0-2.353,1.055-2.353,2.354v14.121
				c0,1.299,1.057,2.355,2.353,2.355h7.063v-6.475h-2.353v-2.941h2.353v-2.354c0-1.951,1.58-3.531,3.53-3.531h2.354v2.943h-1.178
				c-0.649,0-1.177-0.063-1.177,0.588v2.354h2.942l-1.177,2.941h-1.766v6.475h3.53c1.299,0,2.355-1.057,2.355-2.355V463.51
				C759.537,462.211,758.481,461.157,757.183,461.157L757.183,461.157z M757.183,461.157"/>
		</g>
		<g>
			<path style="fill:#2D4C6B;" d="M716.155,461.157h-0.004c-5.191,0-9.413,4.221-9.413,9.414c0,2.061,0.663,3.969,1.792,5.52
				l-1.173,3.496l3.619-1.156c1.489,0.986,3.265,1.557,5.179,1.557c5.191,0,9.414-4.225,9.414-9.416
				S721.347,461.157,716.155,461.157L716.155,461.157z M721.634,474.452c-0.227,0.641-1.129,1.174-1.848,1.328
				c-0.492,0.106-1.135,0.188-3.297-0.709c-2.768-1.147-4.549-3.957-4.688-4.141c-0.134-0.182-1.119-1.488-1.119-2.84
				c0-1.35,0.686-2.008,0.963-2.291c0.227-0.232,0.603-0.338,0.963-0.338c0.117,0,0.221,0.006,0.316,0.012
				c0.275,0.012,0.414,0.027,0.598,0.465c0.227,0.547,0.779,1.898,0.846,2.037c0.066,0.139,0.135,0.326,0.04,0.51
				c-0.089,0.188-0.166,0.272-0.306,0.432c-0.139,0.16-0.269,0.281-0.408,0.453c-0.128,0.15-0.271,0.311-0.111,0.588
				c0.16,0.27,0.713,1.172,1.527,1.898c1.051,0.936,1.903,1.234,2.208,1.361c0.228,0.094,0.498,0.07,0.664-0.105
				c0.21-0.226,0.471-0.603,0.735-0.975c0.188-0.266,0.426-0.299,0.676-0.205c0.254,0.09,1.6,0.754,1.875,0.891
				c0.277,0.141,0.46,0.205,0.527,0.322C721.861,473.262,721.861,473.809,721.634,474.452L721.634,474.452z M721.634,474.452"/>
		</g>
		<g>
			<path style="fill:#2D4C6B;" d="M787.62,461.157h-7.06c-3.25,0-5.885,2.635-5.885,5.883v7.063c0,3.248,2.635,5.885,5.885,5.885
				h7.06c3.25,0,5.885-2.637,5.885-5.885v-7.063C793.505,463.792,790.87,461.157,787.62,461.157L787.62,461.157z M791.739,474.102
				c0,2.271-1.848,4.119-4.119,4.119h-7.06c-2.271,0-4.119-1.848-4.119-4.119v-7.063c0-2.272,1.848-4.119,4.119-4.119h7.06
				c2.272,0,4.119,1.848,4.119,4.119V474.102z M791.739,474.102"/>
			<path style="fill:#2D4C6B;" d="M784.091,465.864c-2.601,0-4.709,2.107-4.709,4.707s2.108,4.707,4.709,4.707
				c2.6,0,4.707-2.107,4.707-4.707S786.69,465.864,784.091,465.864L784.091,465.864z M784.091,473.512
				c-1.623,0-2.943-1.32-2.943-2.941c0-1.623,1.32-2.941,2.943-2.941c1.621,0,2.941,1.318,2.941,2.941
				C787.032,472.192,785.712,473.512,784.091,473.512L784.091,473.512z M784.091,473.512"/>
			<path style="fill:#2D4C6B;" d="M789.778,465.51c0,0.346-0.281,0.627-0.628,0.627s-0.627-0.281-0.627-0.627
				c0-0.346,0.28-0.627,0.627-0.627S789.778,465.165,789.778,465.51L789.778,465.51z M789.778,465.51"/>
		</g>
	</g>
	<g>
		<g>
			<g>
				<text transform="matrix(1 0 0 1 596.0488 229.1226)"><tspan x="0" y="0" style="fill:#FF9D00; font-family:'Poppins-Black'; font-size:168.1457px;">BIG</tspan><tspan x="3.516" y="79.307" style="fill:#2D4C6B; font-family:'Poppins-Black'; font-size:91.2034px;">OFFER</tspan></text>
			</g>
			<text transform="matrix(1 0 0 1 601.9453 348.2911)" style="fill:#2D4C6B; font-family:'Poppins-Black'; font-size:34.203px;">AMERICAN FOOD</text>
		</g>
		<g>
			<path style="fill:#FFC000;" d="M800.916,444.591H692.624c-2.891,0-5.233-2.344-5.233-5.234v-16.645
				c0-2.891,2.343-5.232,5.233-5.232h108.292c2.89,0,5.233,2.342,5.233,5.232v16.645
				C806.149,442.248,803.806,444.591,800.916,444.591z"/>
			<text transform="matrix(1 0 0 1 698.1914 435.8736)"><tspan x="0" y="0" style="fill:#1D1D1B; font-family:'Poppins-Regular'; font-size:14.8812px;">ORDER </tspan><tspan x="56.384" y="0" style="fill:#1D1D1B; font-family:'Poppins-Bold'; font-size:14.8812px;">NOW</tspan></text>
		</g>
		<text transform="matrix(1 0 0 1 686.5859 387.1006)"><tspan x="0" y="0" style="fill:#FF9D00; font-family:'Poppins-ExtraBold'; font-size:16.6075px;">FREE DELIVERY</tspan><tspan x="-17.507" y="21.258" style="fill:#2D4C6B; font-family:'Poppins-ExtraBold'; font-size:20.4078px;">+012 3456 7890</tspan></text>
	</g>
	<text transform="matrix(1 0 0 1 367.3848 375.8584)"><tspan x="0" y="0" style="fill:#2D4C6B; font-family:'Poppins-Black'; font-size:40.0491px;">DISC</tspan><tspan x="8.891" y="40" style="fill:#2D4C6B; font-family:'Poppins-Black'; font-size:40.0491px;">10%</tspan></text>
</g>
</svg>
